%TF.GenerationSoftware,KiCad,Pcbnew,7.0.10*%
%TF.CreationDate,2024-02-22T16:17:49+01:00*%
%TF.ProjectId,PCB,5043422e-6b69-4636-9164-5f7063625858,rev?*%
%TF.SameCoordinates,Original*%
%TF.FileFunction,Legend,Bot*%
%TF.FilePolarity,Positive*%
%FSLAX46Y46*%
G04 Gerber Fmt 4.6, Leading zero omitted, Abs format (unit mm)*
G04 Created by KiCad (PCBNEW 7.0.10) date 2024-02-22 16:17:49*
%MOMM*%
%LPD*%
G01*
G04 APERTURE LIST*
G04 Aperture macros list*
%AMRoundRect*
0 Rectangle with rounded corners*
0 $1 Rounding radius*
0 $2 $3 $4 $5 $6 $7 $8 $9 X,Y pos of 4 corners*
0 Add a 4 corners polygon primitive as box body*
4,1,4,$2,$3,$4,$5,$6,$7,$8,$9,$2,$3,0*
0 Add four circle primitives for the rounded corners*
1,1,$1+$1,$2,$3*
1,1,$1+$1,$4,$5*
1,1,$1+$1,$6,$7*
1,1,$1+$1,$8,$9*
0 Add four rect primitives between the rounded corners*
20,1,$1+$1,$2,$3,$4,$5,0*
20,1,$1+$1,$4,$5,$6,$7,0*
20,1,$1+$1,$6,$7,$8,$9,0*
20,1,$1+$1,$8,$9,$2,$3,0*%
G04 Aperture macros list end*
%ADD10RoundRect,0.250000X1.750000X1.750000X-1.750000X1.750000X-1.750000X-1.750000X1.750000X-1.750000X0*%
%ADD11C,4.000000*%
%ADD12RoundRect,0.250000X-0.750000X-1.050000X0.750000X-1.050000X0.750000X1.050000X-0.750000X1.050000X0*%
%ADD13O,2.000000X2.600000*%
%ADD14RoundRect,0.250000X-1.750000X-1.750000X1.750000X-1.750000X1.750000X1.750000X-1.750000X1.750000X0*%
%ADD15C,1.600000*%
%ADD16RoundRect,0.250000X0.750000X1.050000X-0.750000X1.050000X-0.750000X-1.050000X0.750000X-1.050000X0*%
%ADD17C,3.250000*%
%ADD18RoundRect,0.102000X-0.704000X-0.704000X0.704000X-0.704000X0.704000X0.704000X-0.704000X0.704000X0*%
%ADD19C,1.612000*%
%ADD20C,1.734000*%
%ADD21C,2.604000*%
%ADD22R,1.600000X1.600000*%
%ADD23R,1.300000X1.300000*%
%ADD24C,1.300000*%
G04 APERTURE END LIST*
%LPC*%
D10*
%TO.C,J9*%
X121021000Y-76690900D03*
D11*
X113821000Y-76690900D03*
X106621000Y-76690900D03*
%TD*%
D12*
%TO.C,+5V1*%
X101478000Y-140630000D03*
D13*
X104978000Y-140630000D03*
%TD*%
D14*
%TO.C,J29*%
X17340500Y-40882100D03*
D11*
X24540500Y-40882100D03*
X31740500Y-40882100D03*
%TD*%
D15*
%TO.C,C1*%
X117459000Y-127000000D03*
X119959000Y-127000000D03*
%TD*%
D10*
%TO.C,J7*%
X121343500Y-59775500D03*
D11*
X114143500Y-59775500D03*
X106943500Y-59775500D03*
%TD*%
D14*
%TO.C,J18*%
X17018000Y-112247500D03*
D11*
X24218000Y-112247500D03*
X31418000Y-112247500D03*
%TD*%
D14*
%TO.C,J31*%
X17340500Y-28782100D03*
D11*
X24540500Y-28782100D03*
X31740500Y-28782100D03*
%TD*%
D10*
%TO.C,J3*%
X121343500Y-35575500D03*
D11*
X114143500Y-35575500D03*
X106943500Y-35575500D03*
%TD*%
D10*
%TO.C,J5*%
X121343500Y-47675500D03*
D11*
X114143500Y-47675500D03*
X106943500Y-47675500D03*
%TD*%
D14*
%TO.C,J19*%
X17018000Y-106197500D03*
D11*
X24218000Y-106197500D03*
X31418000Y-106197500D03*
%TD*%
D10*
%TO.C,J10*%
X121021000Y-82740900D03*
D11*
X113821000Y-82740900D03*
X106621000Y-82740900D03*
%TD*%
D16*
%TO.C,LED_PWR_IN1*%
X69464000Y-24470000D03*
D13*
X65964000Y-24470000D03*
%TD*%
D10*
%TO.C,J2*%
X121343500Y-29525500D03*
D11*
X114143500Y-29525500D03*
X106943500Y-29525500D03*
%TD*%
D14*
%TO.C,J20*%
X17018000Y-100147500D03*
D11*
X24218000Y-100147500D03*
X31418000Y-100147500D03*
%TD*%
D10*
%TO.C,J4*%
X121343500Y-41625500D03*
D11*
X114143500Y-41625500D03*
X106943500Y-41625500D03*
%TD*%
D10*
%TO.C,J6*%
X121343500Y-53725500D03*
D11*
X114143500Y-53725500D03*
X106943500Y-53725500D03*
%TD*%
D10*
%TO.C,J13*%
X121021000Y-100890900D03*
D11*
X113821000Y-100890900D03*
X106621000Y-100890900D03*
%TD*%
D10*
%TO.C,J14*%
X121021000Y-106940900D03*
D11*
X113821000Y-106940900D03*
X106621000Y-106940900D03*
%TD*%
D14*
%TO.C,J24*%
X17018000Y-75947500D03*
D11*
X24218000Y-75947500D03*
X31418000Y-75947500D03*
%TD*%
D17*
%TO.C,P1*%
X110995000Y-139194000D03*
X122425000Y-139194000D03*
D18*
X112265000Y-132844000D03*
D19*
X113535000Y-130304000D03*
X114805000Y-132844000D03*
X116075000Y-130304000D03*
X117345000Y-132844000D03*
X118615000Y-130304000D03*
X119885000Y-132844000D03*
X121155000Y-130304000D03*
D20*
X110385000Y-144274000D03*
X112952000Y-142574000D03*
X120468000Y-144274000D03*
X123035000Y-142574000D03*
D21*
X108960000Y-136144000D03*
X124460000Y-136144000D03*
%TD*%
D10*
%TO.C,J1*%
X121343500Y-23475500D03*
D11*
X114143500Y-23475500D03*
X106943500Y-23475500D03*
%TD*%
D14*
%TO.C,J22*%
X17018000Y-88047500D03*
D11*
X24218000Y-88047500D03*
X31418000Y-88047500D03*
%TD*%
D14*
%TO.C,J21*%
X17018000Y-94097500D03*
D11*
X24218000Y-94097500D03*
X31418000Y-94097500D03*
%TD*%
D14*
%TO.C,J26*%
X17340500Y-59032100D03*
D11*
X24540500Y-59032100D03*
X31740500Y-59032100D03*
%TD*%
D10*
%TO.C,J8*%
X121343500Y-65825500D03*
D11*
X114143500Y-65825500D03*
X106943500Y-65825500D03*
%TD*%
D10*
%TO.C,J12*%
X121021000Y-94840900D03*
D11*
X113821000Y-94840900D03*
X106621000Y-94840900D03*
%TD*%
D14*
%TO.C,J25*%
X17340500Y-65082100D03*
D11*
X24540500Y-65082100D03*
X31740500Y-65082100D03*
%TD*%
D14*
%TO.C,J27*%
X17340500Y-52982100D03*
D11*
X24540500Y-52982100D03*
X31740500Y-52982100D03*
%TD*%
D14*
%TO.C,J17*%
X17018000Y-118297500D03*
D11*
X24218000Y-118297500D03*
X31418000Y-118297500D03*
%TD*%
D14*
%TO.C,J23*%
X17018000Y-81997500D03*
D11*
X24218000Y-81997500D03*
X31418000Y-81997500D03*
%TD*%
D22*
%TO.C,U1*%
X18690000Y-142020000D03*
D15*
X21230000Y-142020000D03*
X23770000Y-142020000D03*
X26310000Y-142020000D03*
X28850000Y-142020000D03*
X31390000Y-142020000D03*
X33930000Y-142020000D03*
X36470000Y-142020000D03*
X39010000Y-142020000D03*
X41550000Y-142020000D03*
X44090000Y-142020000D03*
X46630000Y-142020000D03*
X49170000Y-142020000D03*
X51710000Y-142020000D03*
X54250000Y-142020000D03*
X56790000Y-142020000D03*
X59330000Y-142020000D03*
X61870000Y-142020000D03*
X64410000Y-142020000D03*
X66950000Y-142020000D03*
X69490000Y-142020000D03*
X72030000Y-142020000D03*
X74570000Y-142020000D03*
X77110000Y-142020000D03*
X77110000Y-126780000D03*
X74570000Y-126780000D03*
X72030000Y-126780000D03*
X69490000Y-126780000D03*
X66950000Y-126780000D03*
X64410000Y-126780000D03*
X61870000Y-126780000D03*
X59330000Y-126780000D03*
X56790000Y-126780000D03*
X54250000Y-126780000D03*
X51710000Y-126780000D03*
X49170000Y-126780000D03*
X46630000Y-126780000D03*
X44090000Y-126780000D03*
X41550000Y-126780000D03*
X39010000Y-126780000D03*
X36470000Y-126780000D03*
X33930000Y-126780000D03*
X31390000Y-126780000D03*
X28850000Y-126780000D03*
X26310000Y-126780000D03*
X23770000Y-126780000D03*
X21230000Y-126780000D03*
X18690000Y-126780000D03*
X21230000Y-129320000D03*
X64410000Y-139480000D03*
X64410000Y-136940000D03*
X64410000Y-134400000D03*
X64410000Y-131860000D03*
X64410000Y-129320000D03*
D22*
X24989200Y-138969200D03*
D15*
X27529200Y-138969200D03*
X30069200Y-138969200D03*
X32609200Y-138969200D03*
X35149200Y-138969200D03*
D23*
X31660000Y-129218400D03*
D24*
X31660000Y-131218400D03*
X31660000Y-133218400D03*
X33660000Y-133218400D03*
X33660000Y-131218400D03*
X33660000Y-129218400D03*
X19420000Y-133130000D03*
X19420000Y-135670000D03*
%TD*%
D10*
%TO.C,J15*%
X121021000Y-112990900D03*
D11*
X113821000Y-112990900D03*
X106621000Y-112990900D03*
%TD*%
D14*
%TO.C,J32*%
X17340500Y-22732100D03*
D11*
X24540500Y-22732100D03*
X31740500Y-22732100D03*
%TD*%
D10*
%TO.C,J16*%
X121021000Y-119040900D03*
D11*
X113821000Y-119040900D03*
X106621000Y-119040900D03*
%TD*%
D14*
%TO.C,J30*%
X17340500Y-34832100D03*
D11*
X24540500Y-34832100D03*
X31740500Y-34832100D03*
%TD*%
D10*
%TO.C,J11*%
X121021000Y-88790900D03*
D11*
X113821000Y-88790900D03*
X106621000Y-88790900D03*
%TD*%
D14*
%TO.C,J28*%
X17340500Y-46932100D03*
D11*
X24540500Y-46932100D03*
X31740500Y-46932100D03*
%TD*%
%LPD*%
M02*
