%TF.GenerationSoftware,KiCad,Pcbnew,7.0.10*%
%TF.CreationDate,2024-02-22T16:17:49+01:00*%
%TF.ProjectId,PCB,5043422e-6b69-4636-9164-5f7063625858,rev?*%
%TF.SameCoordinates,Original*%
%TF.FileFunction,Paste,Top*%
%TF.FilePolarity,Positive*%
%FSLAX46Y46*%
G04 Gerber Fmt 4.6, Leading zero omitted, Abs format (unit mm)*
G04 Created by KiCad (PCBNEW 7.0.10) date 2024-02-22 16:17:49*
%MOMM*%
%LPD*%
G01*
G04 APERTURE LIST*
G04 Aperture macros list*
%AMRoundRect*
0 Rectangle with rounded corners*
0 $1 Rounding radius*
0 $2 $3 $4 $5 $6 $7 $8 $9 X,Y pos of 4 corners*
0 Add a 4 corners polygon primitive as box body*
4,1,4,$2,$3,$4,$5,$6,$7,$8,$9,$2,$3,0*
0 Add four circle primitives for the rounded corners*
1,1,$1+$1,$2,$3*
1,1,$1+$1,$4,$5*
1,1,$1+$1,$6,$7*
1,1,$1+$1,$8,$9*
0 Add four rect primitives between the rounded corners*
20,1,$1+$1,$2,$3,$4,$5,0*
20,1,$1+$1,$4,$5,$6,$7,0*
20,1,$1+$1,$6,$7,$8,$9,0*
20,1,$1+$1,$8,$9,$2,$3,0*%
G04 Aperture macros list end*
%ADD10RoundRect,0.100000X0.637500X0.100000X-0.637500X0.100000X-0.637500X-0.100000X0.637500X-0.100000X0*%
%ADD11RoundRect,0.079500X0.079500X0.100500X-0.079500X0.100500X-0.079500X-0.100500X0.079500X-0.100500X0*%
%ADD12RoundRect,0.250000X-0.337500X-0.475000X0.337500X-0.475000X0.337500X0.475000X-0.337500X0.475000X0*%
%ADD13RoundRect,0.079500X-0.079500X-0.100500X0.079500X-0.100500X0.079500X0.100500X-0.079500X0.100500X0*%
%ADD14RoundRect,0.250000X0.337500X0.475000X-0.337500X0.475000X-0.337500X-0.475000X0.337500X-0.475000X0*%
%ADD15RoundRect,0.100000X-0.637500X-0.100000X0.637500X-0.100000X0.637500X0.100000X-0.637500X0.100000X0*%
%ADD16RoundRect,0.250000X-0.475000X0.337500X-0.475000X-0.337500X0.475000X-0.337500X0.475000X0.337500X0*%
G04 APERTURE END LIST*
D10*
%TO.C,U4*%
X90101500Y-112681400D03*
X90101500Y-112031400D03*
X90101500Y-111381400D03*
X90101500Y-110731400D03*
X90101500Y-110081400D03*
X90101500Y-109431400D03*
X90101500Y-108781400D03*
X90101500Y-108131400D03*
X84376500Y-108131400D03*
X84376500Y-108781400D03*
X84376500Y-109431400D03*
X84376500Y-110081400D03*
X84376500Y-110731400D03*
X84376500Y-111381400D03*
X84376500Y-112031400D03*
X84376500Y-112681400D03*
%TD*%
D11*
%TO.C,R28*%
X48925000Y-55875600D03*
X48235000Y-55875600D03*
%TD*%
%TO.C,R19*%
X48602500Y-110841000D03*
X47912500Y-110841000D03*
%TD*%
%TO.C,R23*%
X48602500Y-103841000D03*
X47912500Y-103841000D03*
%TD*%
%TO.C,R25*%
X48925000Y-61125600D03*
X48235000Y-61125600D03*
%TD*%
D12*
%TO.C,C8*%
X56874500Y-51308000D03*
X58949500Y-51308000D03*
%TD*%
D13*
%TO.C,R16*%
X89436500Y-92897400D03*
X90126500Y-92897400D03*
%TD*%
D11*
%TO.C,R26*%
X48925000Y-59375600D03*
X48235000Y-59375600D03*
%TD*%
D13*
%TO.C,R10*%
X89436500Y-82397400D03*
X90126500Y-82397400D03*
%TD*%
%TO.C,R14*%
X89436500Y-89397400D03*
X90126500Y-89397400D03*
%TD*%
D10*
%TO.C,U9*%
X59758500Y-59224600D03*
X59758500Y-58574600D03*
X59758500Y-57924600D03*
X59758500Y-57274600D03*
X59758500Y-56624600D03*
X59758500Y-55974600D03*
X59758500Y-55324600D03*
X59758500Y-54674600D03*
X59758500Y-54024600D03*
X59758500Y-53374600D03*
X54033500Y-53374600D03*
X54033500Y-54024600D03*
X54033500Y-54674600D03*
X54033500Y-55324600D03*
X54033500Y-55974600D03*
X54033500Y-56624600D03*
X54033500Y-57274600D03*
X54033500Y-57924600D03*
X54033500Y-58574600D03*
X54033500Y-59224600D03*
%TD*%
D14*
%TO.C,C6*%
X82317500Y-90170000D03*
X80242500Y-90170000D03*
%TD*%
D11*
%TO.C,R32*%
X48925000Y-48875600D03*
X48235000Y-48875600D03*
%TD*%
D13*
%TO.C,R11*%
X89436500Y-84147400D03*
X90126500Y-84147400D03*
%TD*%
D11*
%TO.C,R30*%
X48925000Y-52375600D03*
X48235000Y-52375600D03*
%TD*%
D13*
%TO.C,R7*%
X89759000Y-37932000D03*
X90449000Y-37932000D03*
%TD*%
D15*
%TO.C,U3*%
X78925500Y-29333000D03*
X78925500Y-29983000D03*
X78925500Y-30633000D03*
X78925500Y-31283000D03*
X78925500Y-31933000D03*
X78925500Y-32583000D03*
X78925500Y-33233000D03*
X78925500Y-33883000D03*
X78925500Y-34533000D03*
X78925500Y-35183000D03*
X84650500Y-35183000D03*
X84650500Y-34533000D03*
X84650500Y-33883000D03*
X84650500Y-33233000D03*
X84650500Y-32583000D03*
X84650500Y-31933000D03*
X84650500Y-31283000D03*
X84650500Y-30633000D03*
X84650500Y-29983000D03*
X84650500Y-29333000D03*
%TD*%
D13*
%TO.C,R4*%
X89759000Y-32682000D03*
X90449000Y-32682000D03*
%TD*%
D15*
%TO.C,U6*%
X47937500Y-82307000D03*
X47937500Y-82957000D03*
X47937500Y-83607000D03*
X47937500Y-84257000D03*
X47937500Y-84907000D03*
X47937500Y-85557000D03*
X47937500Y-86207000D03*
X47937500Y-86857000D03*
X53662500Y-86857000D03*
X53662500Y-86207000D03*
X53662500Y-85557000D03*
X53662500Y-84907000D03*
X53662500Y-84257000D03*
X53662500Y-83607000D03*
X53662500Y-82957000D03*
X53662500Y-82307000D03*
%TD*%
D13*
%TO.C,R6*%
X89759000Y-36182000D03*
X90449000Y-36182000D03*
%TD*%
%TO.C,R9*%
X89436500Y-80647400D03*
X90126500Y-80647400D03*
%TD*%
%TO.C,R8*%
X89759000Y-39682000D03*
X90449000Y-39682000D03*
%TD*%
D11*
%TO.C,R17*%
X48602500Y-114341000D03*
X47912500Y-114341000D03*
%TD*%
D16*
%TO.C,C2*%
X74168000Y-29696500D03*
X74168000Y-31771500D03*
%TD*%
D10*
%TO.C,U7*%
X59436000Y-112440000D03*
X59436000Y-111790000D03*
X59436000Y-111140000D03*
X59436000Y-110490000D03*
X59436000Y-109840000D03*
X59436000Y-109190000D03*
X59436000Y-108540000D03*
X59436000Y-107890000D03*
X59436000Y-107240000D03*
X59436000Y-106590000D03*
X53711000Y-106590000D03*
X53711000Y-107240000D03*
X53711000Y-107890000D03*
X53711000Y-108540000D03*
X53711000Y-109190000D03*
X53711000Y-109840000D03*
X53711000Y-110490000D03*
X53711000Y-111140000D03*
X53711000Y-111790000D03*
X53711000Y-112440000D03*
%TD*%
D11*
%TO.C,R31*%
X48925000Y-50625600D03*
X48235000Y-50625600D03*
%TD*%
D13*
%TO.C,R3*%
X89759000Y-30932000D03*
X90449000Y-30932000D03*
%TD*%
D11*
%TO.C,R21*%
X48602500Y-107341000D03*
X47912500Y-107341000D03*
%TD*%
D13*
%TO.C,R1*%
X89759000Y-27432000D03*
X90449000Y-27432000D03*
%TD*%
%TO.C,R15*%
X89436500Y-91147400D03*
X90126500Y-91147400D03*
%TD*%
D11*
%TO.C,R20*%
X48602500Y-109091000D03*
X47912500Y-109091000D03*
%TD*%
D12*
%TO.C,C7*%
X87651500Y-105918000D03*
X85576500Y-105918000D03*
%TD*%
D13*
%TO.C,R13*%
X89436500Y-87647400D03*
X90126500Y-87647400D03*
%TD*%
%TO.C,R12*%
X89436500Y-85897400D03*
X90126500Y-85897400D03*
%TD*%
%TO.C,R5*%
X89759000Y-34432000D03*
X90449000Y-34432000D03*
%TD*%
D12*
%TO.C,C4*%
X54842500Y-104140000D03*
X56917500Y-104140000D03*
%TD*%
D13*
%TO.C,R2*%
X89759000Y-29182000D03*
X90449000Y-29182000D03*
%TD*%
D14*
%TO.C,C9*%
X52345500Y-36322000D03*
X50270500Y-36322000D03*
%TD*%
D10*
%TO.C,U2*%
X90424000Y-59466000D03*
X90424000Y-58816000D03*
X90424000Y-58166000D03*
X90424000Y-57516000D03*
X90424000Y-56866000D03*
X90424000Y-56216000D03*
X90424000Y-55566000D03*
X90424000Y-54916000D03*
X84699000Y-54916000D03*
X84699000Y-55566000D03*
X84699000Y-56216000D03*
X84699000Y-56866000D03*
X84699000Y-57516000D03*
X84699000Y-58166000D03*
X84699000Y-58816000D03*
X84699000Y-59466000D03*
%TD*%
D14*
%TO.C,C5*%
X52091500Y-88900000D03*
X50016500Y-88900000D03*
%TD*%
D11*
%TO.C,R18*%
X48602500Y-112591000D03*
X47912500Y-112591000D03*
%TD*%
%TO.C,R22*%
X48602500Y-105591000D03*
X47912500Y-105591000D03*
%TD*%
%TO.C,R24*%
X48602500Y-102091000D03*
X47912500Y-102091000D03*
%TD*%
%TO.C,R27*%
X48925000Y-57625600D03*
X48235000Y-57625600D03*
%TD*%
D15*
%TO.C,U5*%
X78603000Y-82548400D03*
X78603000Y-83198400D03*
X78603000Y-83848400D03*
X78603000Y-84498400D03*
X78603000Y-85148400D03*
X78603000Y-85798400D03*
X78603000Y-86448400D03*
X78603000Y-87098400D03*
X78603000Y-87748400D03*
X78603000Y-88398400D03*
X84328000Y-88398400D03*
X84328000Y-87748400D03*
X84328000Y-87098400D03*
X84328000Y-86448400D03*
X84328000Y-85798400D03*
X84328000Y-85148400D03*
X84328000Y-84498400D03*
X84328000Y-83848400D03*
X84328000Y-83198400D03*
X84328000Y-82548400D03*
%TD*%
D11*
%TO.C,R29*%
X48925000Y-54125600D03*
X48235000Y-54125600D03*
%TD*%
D15*
%TO.C,U8*%
X48260000Y-29091600D03*
X48260000Y-29741600D03*
X48260000Y-30391600D03*
X48260000Y-31041600D03*
X48260000Y-31691600D03*
X48260000Y-32341600D03*
X48260000Y-32991600D03*
X48260000Y-33641600D03*
X53985000Y-33641600D03*
X53985000Y-32991600D03*
X53985000Y-32341600D03*
X53985000Y-31691600D03*
X53985000Y-31041600D03*
X53985000Y-30391600D03*
X53985000Y-29741600D03*
X53985000Y-29091600D03*
%TD*%
D12*
%TO.C,C3*%
X85852000Y-52324000D03*
X87927000Y-52324000D03*
%TD*%
M02*
